<svg width="17" height="17" viewBox="0 0 17 17" fill="none" xmlns="http://www.w3.org/2000/svg">
<g clip-path="url(#clip0_27_1764)">
<path d="M16.3591 3.67878L11.5066 8.5L16.3591 13.3212C16.4468 13.1379 16.5 12.9352 16.5 12.7188V4.28125C16.5 4.06478 16.4468 3.86213 16.3591 3.67878ZM15.0938 2.875H1.90625C1.68978 2.875 1.48713 2.92822 1.30378 3.01594L7.50575 9.18666C8.05413 9.73503 8.94588 9.73503 9.49425 9.18666L15.6962 3.01594C15.5129 2.92822 15.3102 2.875 15.0938 2.875ZM0.640938 3.67878C0.553219 3.86213 0.5 4.06478 0.5 4.28125V12.7188C0.5 12.9352 0.553219 13.1379 0.640938 13.3212L5.49341 8.5L0.640938 3.67878Z" fill="#C99D1E"/>
<path d="M10.8438 9.16309L10.1571 9.84974C9.24338 10.7635 7.7566 10.7635 6.84288 9.84974L6.15626 9.16309L1.30379 13.9843C1.48713 14.072 1.68979 14.1252 1.90626 14.1252H15.0938C15.3102 14.1252 15.5129 14.072 15.6962 13.9843L10.8438 9.16309Z" fill="#C99D1E"/>
</g>
<defs>
<clipPath id="clip0_27_1764">
<rect width="16" height="16" fill="white" transform="translate(0.5 0.5)"/>
</clipPath>
</defs>
</svg>
