<svg width="17" height="17" viewBox="0 0 17 17" fill="none" xmlns="http://www.w3.org/2000/svg">
<path fill-rule="evenodd" clip-rule="evenodd" d="M16.2074 14.5735C16.1012 14.6794 15.9731 14.8149 15.8372 14.9581C15.4982 15.3179 15.0747 15.7652 14.8093 15.9465C13.4127 16.9008 11.5443 16.4442 10.2227 15.8936C8.47934 15.1672 6.58125 13.8282 4.87697 12.1237C3.17109 10.4191 1.83228 8.52041 1.10587 6.778C0.555875 5.45612 0.0982811 3.58737 1.05275 2.1905C1.234 1.92487 1.68228 1.50203 2.04159 1.16237C2.18534 1.02694 2.31972 0.898969 2.42597 0.793062C2.6146 0.605367 2.86988 0.5 3.13598 0.5C3.40209 0.5 3.65737 0.605367 3.846 0.793062L6.41563 3.36194C6.60322 3.55056 6.70852 3.80577 6.70852 4.0718C6.70852 4.33782 6.60322 4.59303 6.41563 4.78166L5.71562 5.48025C5.48185 5.71232 5.32926 6.01366 5.28056 6.33945C5.23186 6.66523 5.28965 6.99803 5.44534 7.28831C6.40815 9.10551 7.89454 10.5917 9.71191 11.5542C10.0021 11.7098 10.3349 11.7675 10.6606 11.7187C10.9862 11.67 11.2875 11.5173 11.5193 11.2834L12.2176 10.5848C12.4063 10.3971 12.6615 10.2917 12.9276 10.2917C13.1937 10.2917 13.449 10.3971 13.6377 10.5848L16.2074 13.1541C16.395 13.3427 16.5003 13.5978 16.5003 13.8638C16.5003 14.1298 16.395 14.385 16.2074 14.5735Z" fill="#C99D1E"/>
</svg>
