<svg width="15" height="13" viewBox="0 0 15 13" fill="none" xmlns="http://www.w3.org/2000/svg">
<path d="M0.808506 6.41647L4.02851 7.50997L11.674 2.83597C11.785 2.76847 11.8985 2.91897 11.803 3.00697L6.01501 8.33447L5.80001 11.317C5.79649 11.3669 5.80825 11.4168 5.83372 11.4599C5.85919 11.503 5.89717 11.5374 5.94262 11.5584C5.98807 11.5795 6.03884 11.5862 6.0882 11.5777C6.13756 11.5692 6.18318 11.546 6.21901 11.511L8.00101 9.75847L11.259 12.2245C11.61 12.4905 12.1185 12.303 12.213 11.873L14.4815 1.57297C14.611 0.985467 14.035 0.489467 13.4735 0.704467L0.792506 5.56047C0.394506 5.71297 0.405506 6.27947 0.808506 6.41647Z" fill="#C99D1E"/>
</svg>
